# xmcd
#
# Track frame offsets:
#	150
#	10683
#	20515
#	31085
#	42770
#	54404
#	62947
#	72632
#	83692
#	94435
#	105887
#	116661
#	128507
#	137835
#
# Disc length: 2005 seconds
#
# Revision: 1
# Processed by: cddbd v1.5.2PL0 Copyright (c) Steve Scherf et al.
# Submitted via: audiograbber 1.83.01
#
DISCID=b207d30e
DTITLE=George Jones - 1956Country Song Hits
DYEAR=1956
DGENRE=Country
TTITLE0=Why, Baby, Why
TTITLE1=Seasons Of My Heart
TTITLE2=It's OK
TTITLE3=Let Him Know
TTITLE4=Play It Cool Man
TTITLE5=Hold Everything
TTITLE6=Boat Of Life
TTITLE7=You Gotta Be My Baby
TTITLE8=I Gotta Talk To Your Heart
TTITLE9=What Am I Worth
TTITLE10=I'm Ragged But I'm Right
TTITLE11=Yearning (with Jeanette Hicks)
TTITLE12=Still Hurtin'
TTITLE13=Taggin Along
EXTD=
EXTT0=
EXTT1=
EXTT2=
EXTT3=
EXTT4=
EXTT5=
EXTT6=
EXTT7=
EXTT8=
EXTT9=
EXTT10=
EXTT11=
EXTT12=
EXTT13=
PLAYORDER=
